<svg width="32" height="32" viewBox="0 0 32 32" fill="none" xmlns="http://www.w3.org/2000/svg">
<path d="M12.914 14.9269C12.914 14.9269 15.943 14.7019 15.943 11.1509C15.943 7.59994 13.465 5.86694 10.327 5.86694H0V25.7129H10.327C10.327 25.7129 16.631 25.9109 16.631 19.8549C16.631 19.8549 16.906 14.9269 12.914 14.9269ZM4.55 9.39394H10.327C10.327 9.39394 11.731 9.39394 11.731 11.4589C11.731 13.5239 10.905 13.8229 9.969 13.8229H4.55V9.39394ZM10.06 22.1859H4.55V16.8819H10.327C10.327 16.8819 12.419 16.8539 12.419 19.6069C12.419 21.9029 10.889 22.1629 10.061 22.1859H10.06Z" fill="black"/>
<path d="M25.039 10.916C17.407 10.916 17.414 18.541 17.414 18.541C17.414 18.541 16.89 26.127 25.039 26.127C25.039 26.127 31.829 26.515 31.829 20.85H28.337C28.337 20.85 28.454 22.984 25.155 22.984C25.155 22.984 21.663 23.217 21.663 19.531H31.946C31.946 19.531 33.071 10.916 25.039 10.916V10.916ZM28.143 16.882H21.623C21.623 16.882 22.051 13.822 25.116 13.822C28.182 13.822 28.143 16.882 28.143 16.882Z" fill="black"/>
<path d="M20.769 7H28.957V9H20.769V7Z" fill="black"/>
</svg>
