<svg width="601" height="593" viewBox="0 0 601 593" fill="none" xmlns="http://www.w3.org/2000/svg">
<path fill-rule="evenodd" clip-rule="evenodd" d="M308.114 0.0244861C373.845 -0.505223 442.021 7.32462 494.781 46.5322C547.244 85.5187 575.797 147.881 592.214 211.148C607.864 271.46 599.607 332.832 584.774 393.35C568.772 458.638 559.311 534.902 503.631 572.563C448.248 610.024 374.908 583.502 308.114 580.482C245.038 577.631 171.342 598.369 125.032 555.448C78.8956 512.689 107.78 434.67 86.8007 375.367C64.8875 313.424 -6.84756 268.806 0.529846 203.517C8.09351 136.581 67.4393 86.6916 123.62 49.5233C178.055 13.5097 242.846 0.550465 308.114 0.0244861Z" fill="#1875FF"/>
</svg>
