<svg width="32" height="32" viewBox="0 0 32 32" fill="none" xmlns="http://www.w3.org/2000/svg">
<path d="M16 2.883C20.272 2.883 20.778 2.899 22.465 2.976C24.286 3.059 25.976 3.424 27.276 4.724C28.576 6.024 28.941 7.714 29.024 9.535C29.101 11.222 29.117 11.728 29.117 16C29.117 20.272 29.101 20.778 29.024 22.465C28.941 24.286 28.576 25.976 27.276 27.276C25.976 28.576 24.286 28.941 22.465 29.024C20.778 29.101 20.272 29.117 16 29.117C11.728 29.117 11.222 29.101 9.535 29.024C7.714 28.941 6.024 28.576 4.724 27.276C3.424 25.976 3.059 24.286 2.976 22.465C2.899 20.778 2.883 20.272 2.883 16C2.883 11.728 2.899 11.222 2.976 9.535C3.059 7.714 3.424 6.024 4.724 4.724C6.024 3.424 7.714 3.059 9.535 2.976C11.222 2.899 11.728 2.883 16 2.883ZM16 0C11.655 0 11.11 0.018 9.403 0.096C6.803 0.215 4.519 0.852 2.685 2.685C0.852 4.518 0.215 6.802 0.096 9.403C0.018 11.11 0 11.655 0 16C0 20.345 0.018 20.89 0.096 22.597C0.215 25.197 0.852 27.481 2.685 29.315C4.518 31.148 6.802 31.785 9.403 31.904C11.11 31.982 11.655 32 16 32C20.345 32 20.89 31.982 22.597 31.904C25.197 31.785 27.481 31.148 29.315 29.315C31.148 27.482 31.785 25.198 31.904 22.597C31.982 20.89 32 20.345 32 16C32 11.655 31.982 11.11 31.904 9.403C31.785 6.803 31.148 4.519 29.315 2.685C27.482 0.852 25.198 0.215 22.597 0.096C20.89 0.018 20.345 0 16 0Z" fill="black"/>
<path d="M16.0002 7.78394C13.8212 7.78394 11.7314 8.64955 10.1906 10.1903C8.64979 11.7311 7.78418 13.8209 7.78418 15.9999C7.78418 18.179 8.64979 20.2687 10.1906 21.8095C11.7314 23.3503 13.8212 24.2159 16.0002 24.2159C18.1792 24.2159 20.269 23.3503 21.8098 21.8095C23.3506 20.2687 24.2162 18.179 24.2162 15.9999C24.2162 13.8209 23.3506 11.7311 21.8098 10.1903C20.269 8.64955 18.1792 7.78394 16.0002 7.78394V7.78394ZM16.0002 21.3329C14.5858 21.3329 13.2293 20.7711 12.2292 19.7709C11.229 18.7708 10.6672 17.4143 10.6672 15.9999C10.6672 14.5855 11.229 13.2291 12.2292 12.2289C13.2293 11.2288 14.5858 10.6669 16.0002 10.6669C17.4146 10.6669 18.771 11.2288 19.7712 12.2289C20.7713 13.2291 21.3332 14.5855 21.3332 15.9999C21.3332 17.4143 20.7713 18.7708 19.7712 19.7709C18.771 20.7711 17.4146 21.3329 16.0002 21.3329V21.3329Z" fill="black"/>
<path d="M24.5411 9.37906C25.6015 9.37906 26.4611 8.51945 26.4611 7.45906C26.4611 6.39868 25.6015 5.53906 24.5411 5.53906C23.4807 5.53906 22.6211 6.39868 22.6211 7.45906C22.6211 8.51945 23.4807 9.37906 24.5411 9.37906Z" fill="black"/>
</svg>
